<svg width="18" height="18" viewBox="0 0 18 18" fill="none" xmlns="http://www.w3.org/2000/svg">
<path d="M18 0H0V18H18V0Z" fill="#1A1A1A"/>
<path d="M11.268 16.5C12.2078 16.5 13.0143 16.4507 13.6881 16.3009C14.3705 16.1492 14.962 15.8848 15.4234 15.4234C15.8848 14.962 16.1492 14.3705 16.3009 13.6881C16.4507 13.0143 16.5 12.2078 16.5 11.268V9C16.5 8.17155 15.8285 7.5 15 7.5H9C8.17155 7.5 7.5 8.17155 7.5 9V15C7.5 15.8285 8.17155 16.5 9 16.5H11.268Z" fill="#D1D1D1"/>
<path d="M1.5 11.268C1.5 12.2078 1.54938 13.0143 1.69914 13.6881C1.85079 14.3705 2.11516 14.962 2.57657 15.4234C3.03799 15.8848 3.6295 16.1492 4.31186 16.3009C4.37721 16.3154 4.44289 16.329 4.50883 16.3417C5.32222 16.4989 6 15.8104 6 14.982V9C6 8.17155 5.32843 7.5 4.5 7.5H3C2.17157 7.5 1.5 8.17155 1.5 9V11.268Z" fill="#D1D1D1"/>
<path d="M6.73196 1.5C5.79211 1.5 4.98567 1.54938 4.31182 1.69914C3.62946 1.85079 3.03795 2.11516 2.57653 2.57657C2.11512 3.03799 1.85075 3.6295 1.6991 4.31186C1.68665 4.36789 1.67493 4.42411 1.66393 4.48048C1.50315 5.3045 2.20416 6 3.04371 6H14.982C15.8104 6 16.4989 5.32222 16.3417 4.50883C16.329 4.44289 16.3153 4.37721 16.3009 4.31186C16.1491 3.6295 15.8848 3.03799 15.4234 2.57657C14.962 2.11516 14.3704 1.85079 13.6881 1.69914C13.0142 1.54938 12.2078 1.5 11.268 1.5H6.73196Z" fill="#D1D1D1"/>
</svg>
