<svg width="16" height="18" viewBox="0 0 16 18" fill="none" xmlns="http://www.w3.org/2000/svg">
<path d="M10.25 9H3.5M3.5 9L5 10.5M3.5 9L5 7.5" stroke="#D1D1D1" stroke-width="1.5" stroke-linecap="round" stroke-linejoin="round"/>
<path d="M8 16.487C6.83487 16.4519 6.13996 16.3219 5.65899 15.841C5.0827 15.2647 5.01036 14.3812 5.00128 12.75M11 16.4987C12.6312 16.4897 13.5147 16.4173 14.091 15.841C14.75 15.1819 14.75 14.1213 14.75 12V10.5V7.5V6C14.75 3.87868 14.75 2.81802 14.091 2.15901C13.4319 1.5 12.3713 1.5 10.25 1.5H9.5C7.37862 1.5 6.318 1.5 5.65899 2.15901C5.0827 2.73529 5.01036 3.61873 5.00128 5.25" stroke="#D1D1D1" stroke-width="1.5" stroke-linecap="round"/>
<path d="M1.25 7.125V10.875C1.25 12.6428 1.25 13.5266 1.79917 14.0758C2.34835 14.625 3.23224 14.625 5 14.625M1.79917 3.92417C2.34835 3.375 3.23224 3.375 5 3.375" stroke="#D1D1D1" stroke-width="1.5" stroke-linecap="round"/>
</svg>
