<svg width="21" height="21" viewBox="0 0 21 21" fill="none" xmlns="http://www.w3.org/2000/svg">
<path d="M18.0264 9.67968C18.0264 9.2162 17.6531 8.84296 17.1896 8.84296C16.7262 8.84296 16.3529 9.2162 16.3529 9.67968C16.3529 12.5508 13.7279 14.8846 10.5 14.8846C7.27207 14.8846 4.64707 12.5508 4.64707 9.67968C4.64707 9.2162 4.27383 8.84296 3.81035 8.84296C3.34688 8.84296 2.97363 9.2162 2.97363 9.67968C2.97363 13.2152 5.90625 16.1355 9.66328 16.517V18.8754H8.69531C8.23184 18.8754 7.85859 19.2486 7.85859 19.7121C7.85859 20.1756 8.23184 20.5488 8.69531 20.5488H12.3047C12.7682 20.5488 13.1414 20.1756 13.1414 19.7121C13.1414 19.2486 12.7682 18.8754 12.3047 18.8754H11.3367V16.517C15.0938 16.1355 18.0264 13.2152 18.0264 9.67968Z" fill="#585858"/>
<path d="M10.5 13.2686C12.5918 13.2686 14.2857 11.5746 14.2857 9.48281V4.23691C14.2857 2.14512 12.5918 0.451172 10.5 0.451172C8.40818 0.451172 6.71423 2.14512 6.71423 4.23691V9.48281C6.71423 11.5746 8.40818 13.2686 10.5 13.2686ZM8.35486 4.23691C8.35486 3.05566 9.31873 2.0918 10.5 2.0918C11.6812 2.0918 12.6451 3.05566 12.6451 4.23691V9.48281C12.6451 10.6641 11.6812 11.6279 10.5 11.6279C9.31873 11.6279 8.35486 10.6641 8.35486 9.48281V4.23691Z" fill="#585858"/>
</svg>
