<svg width="17" height="17" viewBox="0 0 17 17" fill="none" xmlns="http://www.w3.org/2000/svg">
<path fill-rule="evenodd" clip-rule="evenodd" d="M11 6.5C11 8.9853 8.9853 11 6.5 11C4.01472 11 2 8.9853 2 6.5C2 4.01472 4.01472 2 6.5 2C8.9853 2 11 4.01472 11 6.5ZM10.1793 11.2399C9.1632 12.0297 7.8865 12.5 6.5 12.5C3.18629 12.5 0.5 9.8137 0.5 6.5C0.5 3.18629 3.18629 0.5 6.5 0.5C9.8137 0.5 12.5 3.18629 12.5 6.5C12.5 7.8865 12.0297 9.1632 11.2399 10.1792L16.0304 14.9697L14.9697 16.0303L10.1793 11.2399Z" fill="#7E7E7E"/>
</svg>
