<svg width="24" height="24" viewBox="0 0 24 24" fill="none" xmlns="http://www.w3.org/2000/svg">
<path fill-rule="evenodd" clip-rule="evenodd" d="M13.6 1.8C12.4468 0.262377 10 1.07799 10 3.00001V21.1214C10 23.0539 12.4687 23.8627 13.6122 22.3049L17.5064 17H20C21.6568 17 23 15.6569 23 14V10C23 8.34315 21.6568 7 20 7H17.5L13.6 1.8ZM12 3L15.9 8.2C16.2777 8.70361 16.8705 9 17.5 9H20C20.5523 9 21 9.44772 21 10V14C21 14.5523 20.5523 15 20 15H17.5064C16.8697 15 16.271 15.3032 15.8942 15.8165L12 21.1214V3Z" fill="#585858"/>
<path d="M7.78631 4.17445C7.89061 3.56451 7.42271 3 6.80391 3C6.33651 3 5.93521 3.328 5.85361 3.78824C5.57581 5.35347 5.00001 8.96465 5.00001 12C5.00001 15.0353 5.57581 18.6465 5.85361 20.2118C5.93521 20.672 6.33651 21 6.80391 21C7.42271 21 7.89061 20.4355 7.78631 19.8256C7.49261 18.1073 7.00001 14.8074 7.00001 12C7.00001 9.19264 7.49261 5.8927 7.78631 4.17445Z" fill="#585858"/>
<path d="M2.58998 5C3.26538 5 3.75978 5.69397 3.60338 6.35098C3.32418 7.52413 2.99998 9.4379 2.99998 12C2.99998 14.5621 3.32418 16.4759 3.60338 17.649C3.75978 18.306 3.26538 19 2.58998 19C2.22838 19 1.90258 18.7944 1.78988 18.4509C1.49658 17.5569 0.999984 15.5233 0.999984 12C0.999984 8.47672 1.49658 6.44306 1.78988 5.54913C1.90258 5.20556 2.22838 5 2.58998 5Z" fill="#585858"/>
</svg>
